<svg width="230" height="111" viewBox="0 0 230 111" fill="none" xmlns="http://www.w3.org/2000/svg">
    <path
        d="M50.9113 99.1736C50.8495 98.2963 50.7013 97.4066 50.516 96.554C49.3174 90.8824 45.9069 85.3837 40.5441 82.727C37.6774 81.306 34.0817 81.0466 31.3138 82.6653C29.9669 83.4561 28.892 84.63 27.6934 85.6309C26.4948 86.6318 25.0738 87.5214 23.5169 87.5338C22.5531 87.5338 21.614 87.2248 20.7119 86.9036C17.9935 85.9521 14.2494 85.2602 11.4321 84.7041C8.73841 84.1728 5.94583 83.8515 3.2521 84.5559C2.30065 84.803 1.33682 85.2478 0.768423 86.051C0.3483 86.6564 0.199973 87.4102 0.10112 88.1392C-0.108942 89.7085 -0.071896 91.4755 1.00312 92.6247C1.70745 93.3784 2.7455 93.7368 3.73403 94.0457C7.88583 95.3308 12.433 96.8259 16.7825 97.2213C20.8107 97.592 23.6652 98.111 27.2362 100.323C32.3024 103.461 36.4665 106.279 42.7313 106.452C45.3385 106.526 48.2546 106.019 49.8116 103.919C50.8124 102.572 51.0349 100.891 50.9237 99.1736"
        fill="#F69834" />
    <path
        d="M28.8796 52.2928C28.8673 52.1198 28.8179 51.9592 28.7561 51.8109C27.4339 48.8824 24.7032 46.3863 23.2204 43.4331C21.8241 40.6529 20.7737 37.6997 19.4021 34.9071C17.2644 30.5453 12.6184 25.0219 9.73932 21.1172C9.20798 20.4005 8.66433 19.6715 7.92294 19.1772C5.47634 17.5708 1.91753 19.5355 1.00314 22.3281C0.0887552 25.1083 1.1021 28.1604 2.49839 30.7429C4.79671 34.9565 9.87524 40.1216 13.4463 43.322C15.1638 44.8665 16.9802 46.3617 18.2159 48.314C19.6987 50.6617 20.5019 53.7879 22.4295 55.8391C24.8267 58.3845 24.5549 54.0722 27.1003 53.6644C27.5205 53.6026 27.9653 53.6644 28.336 53.4667C28.7438 53.2442 28.9167 52.7623 28.8673 52.2928"
        fill="#47C5F2" />
    <path
        d="M42.1628 46.2505C42.3111 46.4235 42.4717 46.5841 42.6447 46.7447C44.0039 47.9557 47.0189 46.9177 48.0074 45.5091C48.7982 44.397 48.6747 42.9019 48.5265 41.5427C47.9457 36.4023 47.3649 31.262 46.7841 26.134C45.8698 18.1022 46.5864 9.76153 41.9527 2.64415C40.1486 -0.136079 36.0833 0.0616649 33.7974 2.2982C31.5608 4.48531 31.8698 8.11816 32.4135 11.1949C34.1557 21.2408 36.6518 30.9407 39.5679 40.7023C40.124 42.5435 40.8283 44.743 42.1628 46.2381"
        fill="#F08296" />
    <path
        d="M60.018 45.262C60.9324 46.3617 62.3906 47.2514 63.6262 47.2638C65.838 47.3009 66.7524 44.8543 67.1478 43.0749C68.7912 35.6363 70.1505 28.1482 71.2132 20.6107C71.7074 17.1138 72.14 13.5798 71.8805 10.0581C71.7816 8.69891 71.5592 7.30261 70.7931 6.19052C69.8169 4.78187 68.1858 4.15173 66.5547 3.91696C65.1214 3.7069 63.6263 3.55863 62.3041 4.23824C60.0676 5.3874 60.6483 10.0087 60.8212 11.9734C61.1055 15.1367 60.8831 18.2505 61.0314 21.4262C61.3156 27.2091 60.8336 33.029 59.5856 38.676C59.2025 40.3812 58.7577 42.1729 59.2396 43.8657C59.3755 44.3353 59.6474 44.8171 60.0304 45.2743"
        fill="#D3DD31" />
    <path
        d="M76.4028 49.8462C76.4028 49.8462 76.3904 49.8957 76.378 49.908C76.168 50.4641 75.9703 51.119 76.2669 51.6256C76.4893 52.0086 76.9465 52.194 77.379 52.3547C78.5034 52.7624 79.7885 53.1208 80.8635 52.5894C82.7788 51.6627 83.6438 47.8569 84.2246 46.0034C85.1513 43.0378 86.0039 40.0475 86.77 37.0449C87.7832 33.0166 89.266 29.4085 89.6861 25.269C89.7726 24.4658 89.8344 23.6627 89.6861 22.8718C89.1795 20.3758 84.5211 16.8789 82.2969 19.5727C81.7656 20.2152 81.6915 21.0925 81.6174 21.9081C80.8265 31.3361 79.702 40.9124 76.4275 49.8339"
        fill="#B73E93" />
    <path
        d="M76.3659 54.9374C75.2043 54.579 74.0305 54.2701 72.8072 54.1836C71.8433 54.1095 70.8547 54.1836 69.9404 53.8747C69.3349 53.677 68.8036 53.3187 68.2475 53.0221C65.9739 51.7988 63.379 51.4775 60.9447 50.6867C59.9315 50.3531 58.6218 49.9577 57.7692 49.3028C56.8054 48.5614 56.2864 47.2022 55.4585 46.3001C55.3226 46.1518 55.1619 46.0036 54.9642 45.9912C54.6677 45.9912 54.4699 46.2754 54.3216 46.5349C53.1601 48.4872 51.2449 49.9824 49.0701 50.6373C48.4893 50.8103 47.884 50.9338 47.3279 51.2056C46.1417 51.7864 45.808 52.5773 44.3252 52.4043C43.6456 52.3178 42.9661 51.8853 42.8301 51.218C42.7436 50.7855 42.8795 50.3407 42.793 49.9082C42.6695 49.3522 42.1629 48.9444 41.6068 48.7838C41.0632 48.6232 40.47 48.685 39.914 48.7838C38.32 49.0309 36.7506 49.5252 35.3049 50.2419C35.033 50.3778 34.7612 50.5261 34.5759 50.7608C34.1805 51.2798 34.3535 51.9965 34.5018 52.6267C34.6625 53.2816 34.7736 53.9612 34.6254 54.6161C34.4771 55.271 34.0322 55.9011 33.3897 56.0741C32.8707 56.2101 32.3394 56.0618 31.808 55.9753C28.6077 55.4564 25.0737 57.6435 26.2723 61.2145C26.6677 62.3884 26.8902 63.6364 26.9149 64.8721C26.9149 65.4034 26.9025 65.9471 26.6307 66.4043C26.0994 67.3187 24.8513 67.504 24.0852 68.233C23.4056 68.8756 23.1708 69.9011 23.3067 70.8279C23.4426 71.7546 23.8875 72.6196 24.3817 73.4104C24.9007 74.2383 25.4938 75.0415 26.2723 75.647C28.1505 77.0927 31.0295 77.0556 32.8707 75.5481C33.402 75.1156 33.9581 74.5349 34.6377 74.5843C35.1691 74.6337 35.5891 75.0539 35.9474 75.4493C36.7012 76.2648 37.2943 77.1298 38.3076 77.5128C39.3085 77.8959 40.5564 78.2789 41.6314 78.3901C42.4346 78.4766 43.2749 78.3654 44.0039 78.699C45.3137 79.2921 45.7338 80.9974 46.9077 81.8252C47.402 82.1712 47.9951 82.3442 48.5018 82.6655C50.244 83.7405 50.59 86.1006 50.6889 88.1518C50.7383 89.1527 50.8494 90.2895 51.665 90.8826C52.3322 91.3769 53.2467 91.2903 54.0746 91.3768C56.1381 91.5745 58.041 92.9956 58.8071 94.9109C59.5855 96.8261 59.2025 99.1739 57.8556 100.743C57.4355 101.237 56.9166 101.67 56.583 102.226C56.2494 102.794 56.1381 103.56 56.5459 104.067C57.0525 104.697 58.0163 104.623 58.7947 104.833C59.6473 105.056 60.3888 105.71 60.71 106.526C60.9572 107.156 61.0437 107.935 61.6244 108.268C62.7859 108.231 63.5644 107.107 64.1452 106.094C65.1337 104.376 66.6658 102.473 67.2837 100.582C67.7409 99.1491 67.7779 97.5181 68.198 96.0477C68.4452 95.2074 68.6923 94.3548 69.1371 93.6011C69.965 92.2048 71.3984 91.2657 72.8689 90.5613C74.3393 89.857 75.8963 89.338 77.2926 88.5101C77.861 88.1641 78.417 87.7687 78.7877 87.2127C79.1213 86.7061 79.282 86.113 79.4426 85.5322C79.7268 84.4819 80.011 83.4316 80.2952 82.3813C80.5917 81.3063 80.876 80.2312 80.9996 79.1192C81.1973 77.2533 80.913 75.3257 81.3454 73.4969C81.8644 71.2728 83.3843 69.444 84.5829 67.4917C85.6579 65.7247 86.4735 63.6858 86.0286 61.5976C85.5961 59.5217 84.8918 57.3099 82.8036 56.6055C81.2343 56.0866 79.5909 55.8888 77.9969 55.4193C77.4532 55.2586 76.9095 55.0856 76.3535 54.9126"
        fill="#379248" />
    <path
        d="M117.748 43.112C116.97 42.4324 115.993 41.8517 114.807 41.3821C113.621 40.9126 112.274 40.48 110.742 40.097C109.358 39.7633 108.209 39.4421 107.307 39.1456C106.405 38.8367 105.7 38.5153 105.181 38.1693C104.662 37.8234 104.316 37.4403 104.119 37.0078C103.921 36.5753 103.822 36.0811 103.822 35.5374V35.4509C103.822 34.4871 104.242 33.6592 105.07 32.9919C105.898 32.3247 107.06 31.9911 108.567 31.9911C109.902 31.9911 111.211 32.2506 112.521 32.7572C113.818 33.2761 115.141 34.0176 116.475 34.9814L119.218 31.1138C117.723 29.9276 116.117 29.0132 114.412 28.3953C112.706 27.7652 110.791 27.4562 108.654 27.4562C107.208 27.4562 105.886 27.6663 104.662 28.0864C103.439 28.5066 102.401 29.0749 101.536 29.8163C100.671 30.5453 99.9916 31.435 99.4973 32.473C99.0031 33.5109 98.756 34.6601 98.756 35.9082V35.9946C98.756 37.3291 98.9659 38.4659 99.3984 39.405C99.8309 40.3441 100.461 41.1473 101.277 41.7898C102.092 42.4447 103.105 43.0008 104.316 43.458C105.527 43.9152 106.911 44.3229 108.468 44.6813C109.827 44.9902 110.939 45.2867 111.78 45.5957C112.632 45.9046 113.3 46.2382 113.781 46.5965C114.263 46.9549 114.597 47.3379 114.782 47.7457C114.968 48.1535 115.054 48.6107 115.054 49.142V49.2285C115.054 50.3406 114.585 51.2303 113.658 51.8852C112.731 52.5524 111.471 52.8861 109.889 52.8861C108.06 52.8861 106.429 52.5647 104.984 51.9098C103.538 51.2549 102.117 50.3283 100.696 49.105L97.6191 52.7624C99.3614 54.3441 101.264 55.518 103.315 56.2717C105.367 57.0255 107.517 57.4209 109.766 57.4209C111.285 57.4209 112.694 57.2232 113.967 56.8402C115.24 56.4571 116.327 55.8887 117.241 55.135C118.143 54.3812 118.86 53.4668 119.367 52.3918C119.873 51.3167 120.133 50.0934 120.133 48.7342V48.6478C120.133 47.4615 119.935 46.4112 119.527 45.5092C119.12 44.6071 118.539 43.8163 117.76 43.1367L117.748 43.112ZM125.236 25.4668H129.141L134.207 20.6849L129.635 18.646L125.224 25.4668H125.236ZM124.779 56.9884H129.845V27.8887H124.779V56.9884ZM135.999 56.9884H141.065V45.1385H155.744V40.5171H141.065V32.4977H157.61V27.8887H135.986V56.9884H135.999ZM197.497 56.9884H202.563V27.8887H197.497V56.9884ZM228.697 45.4968C228.29 44.5948 227.709 43.804 226.931 43.1243C226.152 42.4447 225.176 41.864 223.99 41.3945C222.803 40.9249 221.457 40.4924 219.924 40.1093C218.54 39.7757 217.391 39.4544 216.489 39.1579C215.587 38.8489 214.883 38.5277 214.364 38.1817C213.845 37.8357 213.499 37.4527 213.301 37.0202C213.104 36.5877 213.005 36.0935 213.005 35.5498V35.4633C213.005 34.4994 213.425 33.6716 214.253 33.0043C215.081 32.3371 216.254 32.0034 217.75 32.0034C219.084 32.0034 220.394 32.2629 221.704 32.7695C223.001 33.2885 224.323 34.0299 225.658 34.9937L228.401 31.1261C226.906 29.9399 225.299 29.0255 223.594 28.4077C221.889 27.7775 219.974 27.4686 217.836 27.4686C216.39 27.4686 215.068 27.6787 213.845 28.0988C212.622 28.5189 211.584 29.0873 210.719 29.8287C209.854 30.5577 209.174 31.4474 208.68 32.4854C208.186 33.5233 207.939 34.6724 207.939 35.9204V36.007C207.939 37.3415 208.149 38.4783 208.581 39.4174C209.014 40.3565 209.631 41.1596 210.459 41.8022C211.275 42.4571 212.288 43.0132 213.499 43.4704C214.71 43.9276 216.094 44.3353 217.651 44.6937C219.01 45.0026 220.122 45.2991 220.962 45.608C221.815 45.9169 222.482 46.2506 222.964 46.6089C223.446 46.9672 223.78 47.3503 223.965 47.7581C224.15 48.1658 224.237 48.623 224.237 49.1544V49.2409C224.237 50.3529 223.767 51.2426 222.84 51.8975C221.914 52.5648 220.653 52.8984 219.072 52.8984C217.243 52.8984 215.612 52.5771 214.166 51.9222C212.72 51.2673 211.299 50.3406 209.878 49.1173L206.802 52.7748C208.544 54.3565 210.447 55.5304 212.498 56.2841C214.549 57.0502 216.699 57.4333 218.948 57.4333C220.468 57.4333 221.877 57.2355 223.149 56.8525C224.422 56.4694 225.51 55.901 226.424 55.1473C227.326 54.3935 228.043 53.4792 228.549 52.4041C229.056 51.3291 229.315 50.1058 229.315 48.7466V48.6601C229.315 47.4738 229.118 46.4235 228.71 45.5215L228.697 45.4968ZM178.196 27.8887H173.13V52.4289L181.508 54.9248C181.347 55.6539 181.187 56.3458 181.026 57.0007H193.506V52.3918H178.209V27.901L178.196 27.8887ZM161.898 53.8252C162.429 53.9858 162.936 54.1588 163.43 54.3441C164.493 54.7272 165.481 55.0855 166.383 55.3944C166.581 55.4685 166.779 55.518 166.964 55.5798V27.8887H161.886V53.8252H161.898Z"
        fill="#77797B" />
    <path
        d="M228.03 76.2647C226.758 73.3238 225.015 70.7537 222.779 68.5789C220.555 66.3918 217.898 64.6619 214.821 63.3892C211.744 62.1164 208.396 61.4862 204.788 61.4862C201.179 61.4862 197.831 62.1288 194.754 63.3892C191.677 64.6619 189.008 66.4041 186.722 68.6036C184.449 70.8154 182.669 73.398 181.409 76.3636C180.297 78.9708 179.667 81.7263 179.531 84.6177L173.142 69.5057C172.24 69.8393 171.227 69.9999 170.103 69.9999C168.904 69.9999 167.73 69.8393 166.556 69.5303C165.395 69.2214 164.27 68.8631 163.208 68.4801C162.145 68.0847 161.156 67.7386 160.254 67.4297C159.34 67.1208 158.586 66.9602 157.956 66.9602C156.869 66.9602 156.066 67.2568 155.547 67.8622C155.028 68.4553 154.447 69.3326 153.928 70.5312L142.387 97.8393V62.4129H129.61V87.1632L110.309 62.4129H98.1751V109.232H110.952V83.5551L130.994 109.232H151.21L154.558 100.867H172.611L176.021 109.232H189.935L187.76 104.079C189.75 105.797 192.036 107.193 194.618 108.256C197.695 109.529 201.044 110.159 204.652 110.159C208.26 110.159 211.608 109.529 214.685 108.256C217.762 106.983 220.431 105.241 222.717 103.041C224.991 100.83 226.758 98.247 228.03 95.2814C229.303 92.3159 229.933 89.1649 229.933 85.8163V85.6804C229.933 82.3317 229.303 79.1932 228.03 76.2523V76.2647ZM158.376 90.8454L163.665 77.5374L168.879 90.8454H158.376ZM216.699 85.9646C216.699 87.6574 216.403 89.2638 215.822 90.7836C215.241 92.3035 214.438 93.6256 213.412 94.7624C212.387 95.8992 211.127 96.8013 209.656 97.4685C208.186 98.1358 206.542 98.4694 204.763 98.4694C202.983 98.4694 201.34 98.1234 199.87 97.4315C198.399 96.7395 197.127 95.8128 196.076 94.6513C195.026 93.4897 194.21 92.1552 193.63 90.6354C193.049 89.1155 192.752 87.5091 192.752 85.8163V85.6804C192.752 83.9875 193.037 82.3811 193.593 80.8613C194.149 79.3414 194.952 78.0193 196.002 76.8825C197.052 75.7457 198.3 74.8437 199.759 74.1764C201.217 73.5092 202.835 73.1755 204.627 73.1755C206.419 73.1755 208.05 73.5216 209.52 74.2135C210.99 74.9055 212.263 75.8322 213.338 76.9938C214.413 78.1553 215.241 79.4898 215.822 81.0096C216.403 82.5295 216.699 84.1358 216.699 85.8286V85.9646Z"
        fill="#E91D39" />
    <path
        d="M155.547 65.675C156.066 65.0819 156.869 64.773 157.956 64.773C158.574 64.773 159.34 64.9337 160.254 65.2426C161.156 65.5515 162.145 65.9098 163.208 66.2928C164.27 66.6759 165.383 67.0343 166.556 67.3432C167.73 67.6521 168.904 67.8127 170.103 67.8127C172.796 67.8127 174.885 66.8489 176.33 64.9337C177.788 63.0184 178.925 60.1022 179.753 56.2099L172.66 54.2576C172.142 55.4562 171.623 56.3458 171.104 56.9389C170.585 57.532 169.781 57.841 168.694 57.841C168.076 57.841 167.298 57.6804 166.396 57.3714C165.481 57.0625 164.505 56.7041 163.43 56.3211C162.368 55.938 161.231 55.5797 160.044 55.2708C158.846 54.9619 157.684 54.8013 156.535 54.8013C153.842 54.8013 151.766 55.7651 150.308 57.6804C148.849 59.5956 147.713 62.5118 146.885 66.4041L153.965 68.3564C154.484 67.1578 155.003 66.2681 155.522 65.675H155.547Z"
        fill="#E91D39" />
    <path
        d="M109.383 7.35197H107.69V6.69711H109.494L110.062 3.39793H108.246V2.743H110.173L110.606 0.185181H111.273L110.841 2.743H113.732L114.165 0.185181H114.832L114.399 2.743H116.08V3.39793H114.288L113.72 6.69711H115.524V7.35197H113.608L113.164 9.97156H112.496L112.941 7.35197H110.05L109.605 9.97156H108.938L109.383 7.35197ZM113.065 6.69711L113.633 3.39793H110.742L110.173 6.69711H113.065Z"
        fill="#F69834" />
    <path d="M156.708 0.827908H153.298V0.172974H160.848V0.827908H157.437V9.97172H156.708V0.827908Z"
        fill="#F69834" />
    <path
        d="M161.787 2.82954H162.466V4.85603C162.602 4.53476 162.788 4.25053 162.998 3.97869C163.208 3.70684 163.455 3.47207 163.727 3.28672C163.999 3.10138 164.295 2.95313 164.616 2.85427C164.938 2.75542 165.271 2.70594 165.63 2.7183V3.4721H165.555C165.148 3.4721 164.752 3.54625 164.382 3.70688C164.011 3.85516 163.677 4.08993 163.393 4.39885C163.109 4.70776 162.887 5.07842 162.714 5.52326C162.541 5.9681 162.466 6.4747 162.466 7.05546V9.98396H161.787V2.84191V2.82954Z"
        fill="#F69834" />
    <path
        d="M169.559 10.1447C169.225 10.1447 168.892 10.0952 168.571 10.0087C168.249 9.90989 167.953 9.77394 167.693 9.58859C167.434 9.40324 167.224 9.16846 167.051 8.88426C166.89 8.60006 166.803 8.27881 166.803 7.90812V7.88338C166.803 7.51268 166.878 7.17907 167.038 6.89487C167.187 6.61067 167.409 6.36358 167.681 6.16587C167.953 5.96817 168.274 5.81983 168.657 5.72098C169.04 5.62213 169.46 5.57271 169.93 5.57271C170.436 5.57271 170.869 5.59743 171.227 5.65921C171.585 5.721 171.944 5.79513 172.29 5.88162V5.57271C172.29 4.84367 172.08 4.31233 171.672 3.94163C171.252 3.58329 170.683 3.39802 169.942 3.39802C169.497 3.39802 169.102 3.44737 168.743 3.55858C168.385 3.66979 168.039 3.80573 167.705 3.96637L167.458 3.36091C167.854 3.17556 168.249 3.01493 168.645 2.90372C169.04 2.79251 169.497 2.73071 169.991 2.73071C170.968 2.73071 171.721 2.99021 172.24 3.50918C172.722 3.99109 172.969 4.67071 172.969 5.52331V9.97164H172.302V8.78546C172.179 8.95845 172.03 9.11904 171.857 9.27968C171.684 9.44031 171.487 9.58864 171.264 9.7122C171.042 9.83577 170.782 9.94698 170.498 10.0211C170.214 10.0953 169.905 10.1447 169.571 10.1447M169.608 9.48979C169.967 9.48979 170.313 9.44036 170.646 9.32915C170.968 9.21794 171.264 9.06961 171.511 8.88426C171.759 8.69891 171.956 8.46414 172.105 8.19229C172.253 7.92045 172.327 7.62393 172.327 7.30266V6.49945C172.03 6.42531 171.684 6.35119 171.277 6.28941C170.881 6.21527 170.424 6.19054 169.905 6.19054C169.151 6.19054 168.57 6.33881 168.163 6.64772C167.755 6.94428 167.557 7.3521 167.557 7.85872V7.88338C167.557 8.14287 167.619 8.37764 167.73 8.57534C167.841 8.77305 167.99 8.94608 168.187 9.08201C168.373 9.21793 168.595 9.32915 168.855 9.40329C169.102 9.47743 169.374 9.51445 169.633 9.51445"
        fill="#F69834" />
    <path
        d="M177.801 10.0953C177.517 10.0953 177.257 10.0582 177.022 9.98401C176.775 9.90987 176.565 9.78633 176.38 9.6257C176.194 9.46506 176.059 9.255 175.947 9.00787C175.849 8.76074 175.799 8.46415 175.799 8.13053V3.45979H174.761V2.82959H175.799V0.543579H176.491V2.82959H178.999V3.45979H176.491V8.05639C176.491 8.56301 176.627 8.9337 176.886 9.13141C177.158 9.34147 177.492 9.44032 177.912 9.44032C178.085 9.44032 178.258 9.42799 178.419 9.39092C178.579 9.35385 178.765 9.29204 178.962 9.20554V9.84811C178.777 9.9346 178.592 9.99642 178.406 10.0335C178.221 10.0706 178.023 10.0953 177.801 10.0953Z"
        fill="#F69834" />
    <path
        d="M184.041 10.1447C183.571 10.1447 183.127 10.0582 182.706 9.87284C182.286 9.69985 181.903 9.44031 181.582 9.11904C181.261 8.79776 181.001 8.40242 180.816 7.94522C180.63 7.48803 180.532 6.98136 180.532 6.42531V6.40065C180.532 5.88168 180.618 5.39972 180.791 4.95488C180.964 4.49769 181.199 4.10232 181.508 3.7687C181.804 3.43507 182.163 3.1632 182.583 2.96549C182.991 2.76779 183.435 2.66895 183.93 2.66895C184.424 2.66895 184.881 2.76777 185.289 2.95312C185.684 3.13847 186.03 3.41033 186.315 3.74396C186.599 4.07759 186.821 4.47302 186.969 4.93022C187.118 5.38741 187.204 5.88161 187.204 6.41295V6.56129C187.204 6.56129 187.204 6.63541 187.192 6.6972H181.273C181.298 7.14203 181.397 7.5374 181.57 7.88338C181.743 8.22936 181.953 8.52595 182.2 8.76072C182.447 9.00785 182.744 9.18086 183.065 9.31678C183.386 9.44035 183.732 9.50209 184.078 9.50209C184.634 9.50209 185.116 9.39094 185.499 9.18088C185.882 8.97082 186.228 8.69894 186.525 8.37767L187.006 8.79783C186.636 9.19324 186.228 9.51448 185.771 9.77397C185.301 10.0335 184.733 10.157 184.053 10.157M186.475 6.07937C186.45 5.72103 186.376 5.36266 186.253 5.04138C186.142 4.70776 185.968 4.41125 185.758 4.16412C185.548 3.90463 185.289 3.70692 184.98 3.54629C184.671 3.39801 184.313 3.31151 183.905 3.31151C183.547 3.31151 183.213 3.38563 182.904 3.52155C182.595 3.65747 182.323 3.85514 182.101 4.10227C181.866 4.3494 181.681 4.64599 181.533 4.97962C181.384 5.3256 181.298 5.68396 181.261 6.07937H186.463H186.475Z"
        fill="#F69834" />
    <path d="M120.973 0.827908H117.55V0.172974H125.112V0.827908H121.702V9.97172H120.973V0.827908Z"
        fill="#E91D39" />
    <path
        d="M128.511 10.1447C128.041 10.1447 127.596 10.0582 127.176 9.87284C126.756 9.69985 126.373 9.44031 126.052 9.11904C125.73 8.79776 125.471 8.40242 125.285 7.94522C125.1 7.48803 125.001 6.98136 125.001 6.42531V6.40065C125.001 5.88168 125.088 5.39972 125.261 4.95488C125.434 4.49769 125.668 4.10232 125.977 3.7687C126.274 3.43507 126.632 3.1632 127.052 2.96549C127.46 2.76779 127.905 2.66895 128.399 2.66895C128.894 2.66895 129.351 2.76777 129.759 2.95312C130.154 3.13847 130.5 3.41033 130.784 3.74396C131.068 4.07759 131.291 4.47302 131.439 4.93022C131.587 5.38741 131.674 5.88161 131.674 6.41295V6.56129C131.674 6.56129 131.674 6.63541 131.662 6.6972H125.743C125.767 7.14203 125.866 7.5374 126.039 7.88338C126.212 8.22936 126.422 8.52595 126.669 8.76072C126.917 9.00785 127.213 9.18086 127.534 9.31678C127.856 9.44035 128.202 9.50209 128.548 9.50209C129.104 9.50209 129.586 9.39094 129.969 9.18088C130.352 8.97082 130.698 8.69894 130.994 8.37767L131.476 8.79783C131.105 9.19324 130.698 9.51448 130.24 9.77397C129.771 10.0335 129.202 10.157 128.523 10.157M130.945 6.07937C130.92 5.72103 130.846 5.36266 130.722 5.04138C130.611 4.70776 130.438 4.41125 130.228 4.16412C130.018 3.90463 129.759 3.70692 129.45 3.54629C129.141 3.39801 128.782 3.31151 128.375 3.31151C128.016 3.31151 127.683 3.38563 127.374 3.52155C127.065 3.65747 126.793 3.85514 126.571 4.10227C126.336 4.3494 126.15 4.64599 126.002 4.97962C125.854 5.3256 125.767 5.68396 125.73 6.07937H130.932H130.945Z"
        fill="#E91D39" />
    <path
        d="M135.974 10.1077C135.455 10.1077 134.924 10.0088 134.405 9.81108C133.886 9.61337 133.428 9.36626 133.045 9.05735L133.453 8.51365C133.849 8.81021 134.256 9.04498 134.689 9.20562C135.121 9.36625 135.566 9.45277 136.023 9.45277C136.505 9.45277 136.913 9.32923 137.247 9.09445C137.58 8.84732 137.741 8.52607 137.741 8.10594V8.08121C137.741 7.87114 137.691 7.69816 137.593 7.54988C137.494 7.4016 137.345 7.26567 137.172 7.15446C136.999 7.04325 136.789 6.94443 136.567 6.87029C136.345 6.79615 136.11 6.72194 135.85 6.6478C135.566 6.56131 135.27 6.47486 134.973 6.38836C134.676 6.28951 134.417 6.17825 134.182 6.02997C133.947 5.88169 133.762 5.7087 133.614 5.48628C133.466 5.27622 133.391 5.00443 133.391 4.69552V4.67078C133.391 4.38658 133.453 4.11472 133.564 3.87994C133.676 3.64517 133.836 3.43511 134.046 3.26212C134.256 3.08912 134.503 2.95326 134.788 2.8544C135.072 2.75555 135.393 2.70605 135.739 2.70605C136.172 2.70605 136.604 2.78025 137.061 2.91617C137.519 3.06445 137.914 3.24976 138.272 3.49689L137.914 4.06532C137.593 3.85526 137.234 3.68229 136.851 3.54637C136.468 3.41045 136.097 3.34862 135.714 3.34862C135.22 3.34862 134.825 3.47223 134.528 3.70701C134.232 3.94178 134.083 4.2383 134.083 4.59665V4.62138C134.083 4.81909 134.145 4.99205 134.256 5.12797C134.368 5.27625 134.516 5.3998 134.701 5.49865C134.887 5.5975 135.097 5.69639 135.344 5.77053C135.591 5.84467 135.838 5.93117 136.085 6.00531C136.369 6.09181 136.653 6.17827 136.938 6.27712C137.222 6.37597 137.469 6.49953 137.692 6.66017C137.914 6.80845 138.099 6.99381 138.235 7.21623C138.371 7.42629 138.433 7.69815 138.433 8.00707V8.03181C138.433 8.35308 138.371 8.63722 138.247 8.89671C138.124 9.15619 137.951 9.36629 137.728 9.55164C137.506 9.73699 137.247 9.87287 136.95 9.97172C136.653 10.0706 136.332 10.12 135.986 10.12"
        fill="#E91D39" />
    <path
        d="M143.005 10.0953C142.721 10.0953 142.461 10.0582 142.226 9.98401C141.979 9.90987 141.769 9.78633 141.584 9.6257C141.398 9.46506 141.262 9.255 141.151 9.00787C141.052 8.76074 141.003 8.46415 141.003 8.13053V3.45979H139.965V2.82959H141.003V0.543579H141.683V2.82959H144.191V3.45979H141.683V8.05639C141.683 8.56301 141.819 8.9337 142.078 9.13141C142.337 9.34147 142.683 9.44032 143.104 9.44032C143.277 9.44032 143.45 9.42799 143.61 9.39092C143.771 9.35385 143.956 9.29204 144.154 9.20554V9.84811C143.969 9.9346 143.783 9.99642 143.598 10.0335C143.412 10.0706 143.215 10.0953 142.992 10.0953"
        fill="#E91D39" />
    <path
        d="M149.245 10.1447C148.775 10.1447 148.33 10.0582 147.91 9.87284C147.49 9.69985 147.107 9.44031 146.786 9.11904C146.465 8.79776 146.205 8.40242 146.02 7.94522C145.834 7.48803 145.735 6.98136 145.735 6.42531V6.40065C145.735 5.88168 145.822 5.39972 145.995 4.95488C146.168 4.49769 146.403 4.10232 146.712 3.7687C147.021 3.43507 147.367 3.1632 147.787 2.96549C148.194 2.76779 148.639 2.66895 149.134 2.66895C149.628 2.66895 150.085 2.76777 150.493 2.95312C150.901 3.13847 151.234 3.41033 151.518 3.74396C151.803 4.07759 152.025 4.47302 152.173 4.93022C152.322 5.38741 152.408 5.88161 152.408 6.41295V6.56129C152.408 6.56129 152.408 6.63541 152.396 6.6972H146.477C146.502 7.14203 146.601 7.5374 146.774 7.88338C146.947 8.22936 147.157 8.52595 147.404 8.76072C147.651 9.00785 147.947 9.18086 148.269 9.31678C148.59 9.44035 148.936 9.50209 149.282 9.50209C149.838 9.50209 150.32 9.39094 150.703 9.18088C151.086 8.97082 151.432 8.69894 151.729 8.37767L152.21 8.79783C151.852 9.19324 151.432 9.51448 150.975 9.77397C150.505 10.0335 149.937 10.157 149.257 10.157M151.679 6.07937C151.654 5.72103 151.58 5.36266 151.457 5.04138C151.345 4.70776 151.173 4.41125 150.962 4.16412C150.752 3.90463 150.493 3.70692 150.184 3.54629C149.875 3.39801 149.517 3.31151 149.109 3.31151C148.751 3.31151 148.417 3.38563 148.108 3.52155C147.799 3.65747 147.527 3.85514 147.305 4.10227C147.07 4.3494 146.885 4.64599 146.736 4.97962C146.588 5.3256 146.502 5.68396 146.465 6.07937H151.667H151.679Z"
        fill="#E91D39" />
    <path
        d="M193.79 10.1447C193.086 10.1447 192.443 10.0088 191.85 9.74927C191.257 9.48978 190.738 9.13145 190.306 8.67426C189.873 8.21706 189.54 7.68575 189.292 7.06792C189.045 6.45009 188.922 5.79522 188.922 5.0909V5.06616C188.922 4.37419 189.045 3.71926 189.292 3.10143C189.54 2.48361 189.886 1.95228 190.318 1.48273C190.751 1.02553 191.27 0.654831 191.863 0.395344C192.456 0.123499 193.111 0 193.827 0C194.26 0 194.667 0.0370275 195.013 0.111167C195.372 0.185306 195.693 0.296527 196.002 0.43245C196.311 0.568372 196.595 0.741394 196.855 0.926742C197.126 1.11209 197.374 1.33446 197.633 1.56923L197.114 2.10056C196.904 1.89049 196.669 1.70519 196.447 1.5322C196.212 1.35921 195.965 1.19858 195.693 1.07501C195.434 0.951449 195.137 0.852533 194.828 0.778394C194.519 0.704255 194.173 0.667227 193.815 0.667227C193.222 0.667227 192.678 0.77846 192.172 1.00088C191.665 1.2233 191.232 1.53221 190.862 1.92762C190.491 2.32303 190.207 2.79251 189.997 3.32384C189.787 3.85518 189.676 4.43595 189.676 5.04142V5.06616C189.676 5.68399 189.787 6.25242 189.997 6.79611C190.207 7.32744 190.503 7.79692 190.874 8.19233C191.245 8.58774 191.677 8.89667 192.184 9.13144C192.691 9.36622 193.234 9.47746 193.827 9.47746C194.532 9.47746 195.149 9.34153 195.668 9.08204C196.187 8.82256 196.694 8.43952 197.201 7.94526L197.695 8.42711C197.435 8.67424 197.164 8.90901 196.892 9.11907C196.62 9.32913 196.323 9.51449 196.014 9.66277C195.706 9.81104 195.359 9.93465 195.001 10.0088C194.643 10.0953 194.235 10.1323 193.815 10.1323"
        fill="#E91D39" />
    <path
        d="M202.242 10.1447C201.797 10.1447 201.389 10.0706 201.043 9.92233C200.685 9.77405 200.389 9.57636 200.141 9.31687C199.894 9.05738 199.709 8.74847 199.585 8.39013C199.462 8.03179 199.4 7.63635 199.4 7.20387V2.84204H200.08V7.08033C200.08 7.82173 200.277 8.40248 200.673 8.84731C201.068 9.29215 201.624 9.51454 202.353 9.51454C202.699 9.51454 203.021 9.4528 203.33 9.32924C203.638 9.20567 203.898 9.03262 204.12 8.81021C204.343 8.58779 204.516 8.31599 204.652 8.00708C204.775 7.69816 204.837 7.35216 204.837 6.98146V2.85441H205.517V9.99646H204.837V8.66193C204.59 9.08206 204.269 9.44045 203.861 9.72466C203.453 10.0089 202.922 10.1571 202.267 10.1571"
        fill="#E91D39" />
    <path
        d="M208.112 2.82966H208.791V4.85615C208.927 4.53488 209.112 4.25066 209.322 3.97881C209.533 3.70697 209.78 3.47219 210.051 3.28685C210.323 3.1015 210.62 2.95325 210.941 2.8544C211.262 2.75554 211.596 2.70606 211.954 2.71842V3.47222H211.88C211.472 3.47222 211.077 3.54637 210.706 3.707C210.336 3.85528 210.002 4.09005 209.718 4.39897C209.434 4.70788 209.211 5.07854 209.038 5.52338C208.865 5.96822 208.791 6.47482 208.791 7.05558V9.98408H208.112V2.84203V2.82966Z"
        fill="#E91D39" />
    <path
        d="M216.724 10.1447C216.254 10.1447 215.81 10.0582 215.389 9.87284C214.969 9.69985 214.586 9.44031 214.265 9.11904C213.944 8.79776 213.684 8.40242 213.499 7.94522C213.314 7.48803 213.215 6.98136 213.215 6.42531V6.40065C213.215 5.88168 213.301 5.39972 213.474 4.95488C213.647 4.49769 213.882 4.10232 214.191 3.7687C214.487 3.43507 214.846 3.1632 215.266 2.96549C215.674 2.76779 216.119 2.66895 216.613 2.66895C217.107 2.66895 217.564 2.76777 217.972 2.95312C218.367 3.13847 218.713 3.41033 218.998 3.74396C219.282 4.07759 219.504 4.47302 219.653 4.93022C219.801 5.38741 219.887 5.88161 219.887 6.41295V6.56129C219.887 6.56129 219.887 6.63541 219.875 6.6972H213.956C213.981 7.14203 214.08 7.5374 214.253 7.88338C214.426 8.22936 214.636 8.52595 214.883 8.76072C215.13 9.00785 215.427 9.18086 215.748 9.31678C216.069 9.44035 216.415 9.50209 216.761 9.50209C217.317 9.50209 217.799 9.39094 218.182 9.18088C218.565 8.97082 218.911 8.69894 219.208 8.37767L219.69 8.79783C219.319 9.19324 218.911 9.51448 218.454 9.77397C217.984 10.0335 217.416 10.157 216.736 10.157M219.158 6.07937C219.134 5.72103 219.059 5.36266 218.936 5.04138C218.825 4.70776 218.652 4.41125 218.442 4.16412C218.232 3.90463 217.972 3.70692 217.663 3.54629C217.354 3.39801 216.996 3.31151 216.588 3.31151C216.23 3.31151 215.896 3.38563 215.587 3.52155C215.278 3.65747 215.006 3.85514 214.784 4.10227C214.549 4.3494 214.364 4.64599 214.216 4.97962C214.067 5.3256 213.981 5.68396 213.944 6.07937H219.146H219.158Z"
        fill="#E91D39" />
    <path d="M220.134 13.0856H107.43V13.5428H220.134V13.0856Z" fill="#E91D39" />
</svg>